<svg xmlns="http://www.w3.org/2000/svg" width="461" height="229" viewBox="0 0 461 229" version="1.1"><path d="M 0 114.502 L 0 229.004 230.750 228.752 L 461.500 228.500 461.754 114.250 L 462.008 -0 231.004 -0 L 0 0 0 114.502 M 0.483 115 C 0.483 177.975, 0.603 203.738, 0.750 172.250 C 0.896 140.763, 0.896 89.238, 0.750 57.750 C 0.603 26.263, 0.483 52.025, 0.483 115 M 65.684 4.250 C 65.391 5.488, 64.138 12.462, 62.898 19.750 L 60.645 33 33.822 33 L 7 33 7 112 L 7 191 119.250 191.031 C 184.988 191.049, 234.608 191.460, 239 192.023 C 243.125 192.552, 253.925 194.319, 263 195.950 C 272.075 197.581, 293.675 201.421, 311 204.482 C 351.505 211.639, 347.491 210.627, 345.758 213.238 C 343.789 216.203, 342.291 216.492, 341.517 214.055 C 340.453 210.700, 338.492 211.704, 337.286 216.224 C 336.145 220.496, 336.347 222, 338.059 222 C 338.577 222, 339.010 220.537, 339.022 218.750 L 339.044 215.500 340.869 217.873 L 342.694 220.245 344.847 217.934 L 347 215.623 347 219.311 C 347 221.340, 347.450 223, 348 223 C 348.550 223, 349 220.600, 349 217.667 C 349 214.733, 349.219 212.114, 349.488 211.846 C 349.961 211.372, 368.158 213.898, 368.842 214.533 C 369.030 214.707, 368.759 215.608, 368.241 216.534 C 367.361 218.107, 367.254 218.104, 366.637 216.497 C 366.100 215.096, 365.698 215.005, 364.488 216.010 C 363.428 216.890, 363 216.917, 363 216.103 C 363 215.384, 362.072 215.195, 360.487 215.593 C 358.990 215.968, 357.327 215.686, 356.372 214.894 C 355.005 213.759, 354.495 213.906, 352.885 215.893 C 349.177 220.473, 352.148 224.088, 356.365 220.127 C 359.017 217.636, 360 217.450, 360 219.441 C 360 221.809, 362.033 222.332, 363.535 220.350 C 364.354 219.268, 364.950 219.019, 364.968 219.750 C 365.015 221.608, 367.748 221.262, 368.920 219.250 C 369.874 217.612, 369.941 217.620, 369.970 219.367 C 369.992 220.770, 370.525 221.096, 372.115 220.680 C 373.279 220.376, 375.079 220.657, 376.115 221.304 C 377.576 222.216, 378.459 222.194, 380.041 221.207 C 381.163 220.506, 382.541 220.217, 383.104 220.564 C 383.666 220.912, 384.942 220.457, 385.939 219.555 C 387.621 218.033, 387.799 218.034, 388.389 219.571 C 388.824 220.706, 389.809 221.078, 391.512 220.753 C 393.177 220.435, 394 220.728, 394 221.639 C 394 222.387, 394.661 223, 395.469 223 C 396.423 223, 396.715 222.422, 396.304 221.349 C 395.744 219.892, 396.304 219.779, 401.085 220.389 C 404.063 220.769, 411.179 221.971, 416.898 223.059 C 422.617 224.147, 427.504 224.829, 427.758 224.575 C 428.013 224.320, 432.432 200.124, 437.579 170.806 C 442.725 141.488, 448.819 107.031, 451.120 94.236 C 453.422 81.440, 455.055 70.722, 454.751 70.418 C 454.447 70.113, 443.016 67.875, 429.349 65.443 C 415.682 63.012, 403.938 60.806, 403.250 60.542 C 402.335 60.191, 402 56.435, 402 46.531 L 402 33 322.936 33 L 243.871 33 219.186 28.528 C 163.449 18.430, 69.880 2, 68.112 2 C 66.971 2, 66.005 2.895, 65.684 4.250 M 34.215 54.241 C 33.609 54.971, 31.956 64.553, 30.541 75.534 C 29.127 86.515, 27.761 96.440, 27.506 97.588 C 27.251 98.737, 27.681 100.537, 28.460 101.588 C 31.314 105.437, 32.810 101.560, 34.974 84.702 C 36.088 76.024, 37 68.176, 37 67.262 C 37 64.152, 38.725 67.401, 46.014 84.235 C 49.999 93.440, 53.899 101.501, 54.680 102.149 C 57.772 104.715, 58.858 100.978, 61.780 77.723 C 64.189 58.545, 64.424 54.767, 63.270 53.809 C 60.459 51.476, 59.158 55.221, 56.874 72.231 C 55.639 81.432, 54.420 88.753, 54.166 88.500 C 53.912 88.246, 50.255 80.268, 46.040 70.771 C 38.556 53.911, 36.673 51.279, 34.215 54.241 M 77.030 54.464 C 75.256 56.601, 69.891 98.929, 71.107 101.199 C 71.948 102.771, 73.512 103, 83.413 103 C 95.209 103, 98.002 102.053, 96.643 98.513 C 96.178 97.301, 94.056 97, 85.964 97 C 76.824 97, 75.912 96.834, 76.361 95.250 C 76.633 94.287, 77.156 90.705, 77.522 87.289 L 78.187 81.078 86.344 80.789 C 93.737 80.527, 94.500 80.313, 94.500 78.500 C 94.500 76.695, 93.735 76.471, 86.643 76.206 L 78.786 75.912 79.420 71.206 C 79.768 68.618, 80.306 64.813, 80.615 62.750 L 81.176 59 90.465 59 C 100.131 59, 102.933 57.875, 101.643 54.513 C 100.808 52.336, 78.832 52.292, 77.030 54.464 M 116.270 54.435 C 112.193 56.268, 109.009 61.411, 109.004 66.173 C 108.999 70.644, 112.163 74.733, 118.499 78.447 C 123.758 81.528, 125 83.499, 125 88.760 C 125 93.031, 122.385 96.265, 118.088 97.311 C 115.188 98.016, 112.592 96.794, 108.241 92.675 C 105.211 89.807, 104.865 89.706, 103.331 91.241 C 101.796 92.775, 101.871 93.142, 104.392 96.447 C 109.667 103.363, 117.044 104.891, 123.991 100.505 C 128.684 97.543, 131.001 93.506, 130.996 88.300 C 130.991 82.982, 128.106 78.826, 121.134 74.091 C 117.838 71.853, 114.867 69.155, 114.530 68.096 C 113.427 64.620, 115.087 60.867, 118.332 59.502 C 121.702 58.085, 123.116 58.366, 127.327 61.286 C 132.371 64.783, 133.955 59.543, 128.977 55.830 C 125.539 53.266, 120.179 52.678, 116.270 54.435 M 169.239 54.250 C 168.685 54.938, 167.469 61.350, 166.535 68.500 C 164.196 86.407, 160.028 95.313, 153.388 96.594 C 146.117 97.997, 143.304 85.513, 146.385 65.512 C 147.956 55.311, 147.640 53.540, 144.356 54.167 C 141.679 54.677, 139.905 63.911, 139.683 78.500 C 139.524 88.916, 139.773 91.020, 141.569 94.443 C 145.653 102.228, 153.012 104.585, 159.125 100.065 L 162 97.940 162 100.154 C 162 103.891, 157.967 110.966, 154.947 112.527 C 153.381 113.337, 150.893 114, 149.418 114 C 146.355 114, 140.476 110.684, 139.631 108.480 C 138.940 106.681, 135.342 106.513, 134.716 108.250 C 133.899 110.514, 137.242 114.767, 141.517 116.901 C 152.355 122.314, 163.615 116.570, 167.031 103.886 C 169.083 96.263, 173.783 56.544, 172.845 54.750 C 171.765 52.685, 170.626 52.527, 169.239 54.250 M 195.208 53.850 C 194.497 54.301, 189.257 64.757, 183.564 77.085 C 175.520 94.505, 173.427 99.904, 174.174 101.311 C 175.752 104.283, 177.288 102.846, 181.500 94.462 L 185.500 86.500 192.257 86.204 C 199.895 85.870, 200.145 86.114, 201.522 95.296 C 201.902 97.834, 202.813 100.718, 203.546 101.705 C 204.730 103.301, 205.044 103.333, 206.379 102 C 207.710 100.669, 207.713 99.599, 206.398 92.500 C 205.583 88.100, 203.792 78.425, 202.418 71 C 199.156 53.376, 198.482 51.773, 195.208 53.850 M 252.280 54.971 C 241.612 61.475, 236.149 81.751, 241.720 94.166 C 246.958 105.840, 259.493 105.016, 266.062 92.564 C 268.169 88.569, 268.297 87.813, 267 86.987 C 264.763 85.561, 264.643 85.634, 261.201 90.518 C 257.128 96.296, 253.784 97.956, 250.251 95.953 C 242.668 91.655, 243.938 71.212, 252.344 62.250 C 256.661 57.648, 259.943 57.878, 264.058 63.073 C 266.840 66.586, 267.478 66.951, 268.700 65.729 C 270.785 63.643, 269.373 59.535, 265.360 56.011 C 261.284 52.432, 257.002 52.092, 252.280 54.971 M 292.347 53.765 C 290.846 54.722, 271 97.734, 271 100.031 C 271 101.943, 273.137 103.209, 274.591 102.157 C 275.091 101.796, 277.184 98.013, 279.242 93.750 L 282.984 86 289.912 86 L 296.841 86 297.468 89.250 C 299.923 101.973, 301.360 104.681, 303.980 101.524 C 304.831 100.499, 304.079 94.696, 300.913 77.833 C 296.332 53.439, 295.690 51.635, 292.347 53.765 M 319.239 54.250 C 318.299 55.418, 314.482 81.925, 313.285 95.595 C 312.854 100.517, 313.050 101.805, 314.302 102.286 C 315.156 102.613, 316.367 102.263, 316.993 101.508 C 317.965 100.337, 319.917 90.323, 319.980 86.182 C 319.991 85.458, 324.023 88.574, 328.939 93.108 C 339.884 103.202, 340.366 103.491, 342.566 101.291 C 344.194 99.663, 343.704 99.024, 333.484 89.463 L 322.681 79.356 331.449 69.928 C 343.131 57.366, 343.786 56.357, 341.650 54.222 C 340.106 52.678, 339.376 53.214, 331.023 62.032 C 326.091 67.239, 322.051 71.050, 322.047 70.500 C 322.043 69.950, 322.487 66.404, 323.034 62.620 C 323.754 57.638, 323.715 55.362, 322.892 54.370 C 321.482 52.671, 320.535 52.640, 319.239 54.250 M 356.113 55.250 C 355.653 56.487, 354.052 67.085, 352.557 78.800 C 350.418 95.551, 350.095 100.409, 351.041 101.550 C 352.802 103.671, 374.225 103.639, 375.989 101.513 C 376.668 100.695, 376.963 99.345, 376.643 98.513 C 376.178 97.300, 374.054 97, 365.943 97 L 355.824 97 356.412 93 C 356.735 90.800, 357.265 87.200, 357.588 85 L 358.176 81 366.029 81 C 374.032 81, 375.478 80.410, 374.396 77.590 C 373.913 76.332, 372.219 76, 366.278 76 L 358.770 76 359.425 70.250 C 360.808 58.118, 359.831 59.110, 370.716 58.785 C 378.612 58.550, 380.481 58.189, 381.394 56.722 C 383.209 53.803, 380.470 53.032, 368.225 53.015 C 357.441 53.001, 356.914 53.098, 356.113 55.250 M 193.271 69.500 C 192.146 71.700, 190.523 75.188, 189.664 77.250 L 188.102 81 193.429 81 L 198.756 81 197.359 74.250 C 196.590 70.537, 195.816 67.050, 195.639 66.500 C 195.461 65.950, 194.395 67.300, 193.271 69.500 M 289.215 72.519 C 287.447 76.104, 286 79.479, 286 80.019 C 286 80.559, 288.280 81, 291.067 81 C 295.417 81, 296.064 80.752, 295.636 79.250 C 295.362 78.287, 294.625 74.912, 293.998 71.750 C 293.371 68.588, 292.762 66, 292.644 66 C 292.526 66, 290.983 68.934, 289.215 72.519 M 45.935 129.127 C 40.092 140.580, 28 167.586, 28 169.182 C 28 170.259, 28.726 171, 29.781 171 C 31 171, 32.731 168.636, 35.273 163.500 L 38.984 156 45.453 156 L 51.923 156 52.867 159.750 C 53.386 161.813, 54.099 165.188, 54.451 167.250 C 54.935 170.086, 55.567 171, 57.045 171 C 58.585 171, 58.999 170.310, 58.994 167.750 C 58.991 165.963, 58.590 162.925, 58.102 161 C 57.614 159.075, 55.940 150.599, 54.383 142.165 C 52.239 130.551, 51.128 126.604, 49.806 125.896 C 48.371 125.128, 47.682 125.703, 45.935 129.127 M 112.095 125.877 C 110.655 126.833, 104.589 167.170, 105.497 169.750 C 106.156 171.622, 113.874 171.241, 118.581 169.103 C 128.002 164.824, 133.125 155.469, 133.125 142.547 C 133.125 134.571, 131.036 130.270, 125.972 127.821 C 121.622 125.717, 113.953 124.643, 112.095 125.877 M 172.259 127.927 C 167.389 131.455, 163.361 139.150, 161.987 147.551 C 160.877 154.332, 161.463 158.893, 164.122 164.184 C 167.950 171.800, 175.263 173.342, 181.516 167.852 C 184.969 164.820, 188 160.238, 188 158.050 C 188 155.524, 184.115 157.369, 180.615 161.556 C 177.370 165.439, 176.340 166.067, 173.653 165.806 C 171.192 165.567, 170.116 164.732, 168.752 162 C 166.324 157.140, 166.461 147.516, 169.056 140.579 C 171.103 135.110, 175.739 130, 178.655 130 C 179.481 130, 181.949 131.810, 184.139 134.022 C 186.329 136.234, 188.543 137.782, 189.060 137.463 C 191.865 135.729, 187.467 127.707, 182.824 126.088 C 178.159 124.462, 176.689 124.718, 172.259 127.927 M 206.367 127.041 C 199.655 131.341, 194.990 141.715, 195.022 152.270 C 195.059 164.449, 199.390 171, 207.406 171 C 210.825 171, 211.994 170.349, 215.934 166.250 C 220.119 161.896, 223.911 153.782, 224.036 148.912 C 224.056 148.135, 225.969 146.600, 228.286 145.500 C 230.647 144.379, 232.655 142.665, 232.852 141.600 C 233.170 139.887, 232.751 139.762, 228.602 140.331 C 224.355 140.913, 224 140.795, 224 138.797 C 224 135.186, 220.222 128.562, 217.117 126.728 C 213.306 124.477, 210.229 124.567, 206.367 127.041 M 244.907 126.490 C 236.628 130.991, 230.640 147.132, 233.012 158.557 C 235.340 169.773, 244.591 174.580, 251.943 168.395 C 256.039 164.948, 259.663 158.611, 261.101 152.382 C 262.143 147.867, 262.706 147.125, 266.384 145.415 C 271.302 143.127, 272.529 140, 268.508 140 C 267.056 140, 264.998 140.466, 263.934 141.035 C 262.255 141.934, 262 141.731, 262 139.503 C 262 135.485, 259.569 130.657, 256.059 127.703 C 252.516 124.721, 248.886 124.326, 244.907 126.490 M 278.197 126.309 C 277.674 126.964, 276.942 130.200, 276.570 133.500 C 276.197 136.800, 274.981 146.191, 273.866 154.370 C 271.826 169.344, 272.053 171.961, 275.288 170.720 C 276.693 170.181, 277.968 165.032, 277.989 159.809 C 277.995 158.329, 278.463 156.832, 279.029 156.482 C 279.595 156.133, 283.682 159.256, 288.112 163.423 C 296.137 170.973, 300 172.817, 300 169.097 C 300 167.973, 296.126 163.638, 290.529 158.501 L 281.058 149.807 290.529 139.443 C 295.738 133.742, 300 128.596, 300 128.008 C 300 127.419, 299.237 126.645, 298.305 126.287 C 297.053 125.806, 294.423 127.968, 288.231 134.568 C 283.623 139.481, 280.083 142.600, 280.365 141.500 C 280.647 140.400, 281.176 136.528, 281.540 132.896 C 282.083 127.475, 281.928 126.186, 280.674 125.705 C 279.834 125.383, 278.719 125.655, 278.197 126.309 M 330.103 126.375 C 329.220 127.439, 324 163.714, 324 168.786 C 324 170.948, 324.282 171, 335.941 171 C 348.229 171, 351.178 170.066, 347.462 167.348 C 346.262 166.471, 342.688 166, 337.229 166 L 328.841 166 329.356 163.250 C 329.640 161.738, 330.153 158.363, 330.497 155.750 L 331.123 151 338.502 151 C 342.991 151, 346.161 150.549, 346.594 149.848 C 347.878 147.770, 343.791 146, 337.707 146 L 331.797 146 332.512 138.750 C 332.905 134.762, 333.427 131.162, 333.672 130.750 C 333.918 130.338, 338.156 130, 343.090 130 C 350.395 130, 352.177 129.702, 352.677 128.399 C 353.015 127.519, 352.663 126.393, 351.896 125.899 C 349.836 124.571, 331.263 124.978, 330.103 126.375 M 367.500 126.427 C 363.199 128.290, 360.908 131.268, 360.303 135.778 C 359.607 140.966, 360.924 143.149, 367.780 148.171 C 374.723 153.256, 374.974 153.599, 374.953 158 C 374.935 161.861, 373.625 164.074, 370.316 165.837 C 366.772 167.724, 364.605 167.210, 360.193 163.433 C 354.161 158.270, 351.753 160.366, 356.527 166.624 C 363.943 176.347, 380.273 170.431, 380.273 158.022 C 380.273 152.846, 378.183 149.842, 371.019 144.714 C 364.406 139.981, 363.701 138.618, 365.568 134.177 C 367.114 130.499, 371.211 129.030, 374.401 131.010 C 375.555 131.726, 377.276 132.793, 378.225 133.381 C 380.819 134.988, 382.567 132.880, 380.879 130.178 C 378.429 126.254, 372.035 124.461, 367.500 126.427 M 70.958 126.750 C 70.935 127.162, 69.650 136.725, 68.101 148 C 66.553 159.275, 65.494 169.063, 65.750 169.750 C 66.503 171.778, 68.981 171.180, 69.898 168.750 C 70.364 167.512, 71.520 159.975, 72.466 152 C 73.413 144.025, 74.365 137.318, 74.581 137.095 C 74.987 136.679, 75.621 138.036, 84.585 158.500 C 88.588 167.639, 90.329 170.575, 91.885 170.815 C 94.408 171.204, 94.421 171.152, 96.990 150 C 98.092 140.925, 99.242 132.032, 99.545 130.237 C 99.955 127.804, 99.685 126.816, 98.481 126.354 C 97.592 126.013, 96.483 126.132, 96.015 126.617 C 95.547 127.103, 94.199 134.466, 93.019 142.980 C 91.839 151.493, 90.739 158.594, 90.574 158.759 C 90.409 158.924, 86.950 151.624, 82.887 142.537 C 76.510 128.274, 75.192 126.015, 73.250 126.008 C 72.013 126.004, 70.981 126.338, 70.958 126.750 M 312.572 129.693 C 310.826 140.364, 307.425 168.776, 307.771 169.812 C 307.988 170.465, 308.990 171, 309.995 171 C 312.075 171, 312.049 171.119, 314.955 148.500 C 317.865 125.847, 317.852 126.550, 315.347 126.193 C 313.551 125.937, 313.092 126.517, 312.572 129.693 M 114.587 133.633 C 113.526 140.166, 111.016 161.361, 111.008 163.858 C 111.001 165.928, 111.337 166.135, 113.750 165.548 C 121.737 163.604, 127.255 156.456, 128.563 146.361 C 129.770 137.037, 126.401 131.266, 119.185 130.298 C 115.230 129.768, 115.213 129.780, 114.587 133.633 M 210.512 132.962 C 209.755 135.348, 211.252 138.363, 214.230 140.449 C 218.008 143.095, 219.339 142.474, 218.674 138.376 C 217.657 132.110, 211.978 128.343, 210.512 132.962 M 248.667 131.667 C 247.192 133.141, 248.157 136.311, 250.923 139.077 C 254.985 143.139, 257.454 143.020, 256.610 138.802 C 255.413 132.815, 251.254 129.079, 248.667 131.667 M 202.413 139.127 C 199.765 144.189, 199.344 157.467, 201.689 162 C 206.066 170.461, 216.082 163.742, 218.528 150.703 C 219.170 147.283, 219.042 146.999, 216.861 146.993 C 213.503 146.984, 208.984 143.719, 206.397 139.431 L 204.178 135.755 202.413 139.127 M 240.001 140.314 C 237.195 146.592, 237.029 156.347, 239.638 161.688 C 241.126 164.735, 242.129 165.561, 244.632 165.805 C 247.217 166.056, 248.304 165.454, 250.854 162.361 C 253.722 158.882, 257 151.393, 257 148.322 C 257 147.595, 255.988 146.998, 254.750 146.996 C 251.189 146.990, 246.267 143.422, 244.122 139.292 L 242.153 135.500 240.001 140.314 M 44.309 144.082 L 41.160 151 46.189 151 C 50.902 151, 51.182 150.859, 50.656 148.750 C 50.348 147.512, 49.790 144.578, 49.416 142.228 C 49.043 139.878, 48.449 137.778, 48.097 137.560 C 47.746 137.343, 46.041 140.278, 44.309 144.082 M 37 211.923 C 37 212.431, 35.441 214.889, 33.535 217.386 C 31.629 219.883, 30.468 222.171, 30.954 222.472 C 31.441 222.772, 32.438 222.421, 33.169 221.690 C 35.278 219.585, 39.040 218.941, 39.668 220.578 C 39.968 221.360, 40.800 222, 41.515 222 C 42.480 222, 42.258 220.577, 40.658 216.502 C 38.725 211.578, 37 209.418, 37 211.923 M 44.607 212.582 C 44.273 213.452, 44 215.716, 44 217.613 C 44 221.712, 46.211 223.024, 48.947 220.548 C 50.716 218.947, 50.855 218.968, 51.477 220.927 C 52.253 223.372, 53.820 223.634, 54.655 221.457 C 55.180 220.088, 55.456 220.103, 57.098 221.589 C 58.848 223.173, 59.004 223.121, 59.950 220.632 C 61.129 217.529, 63 217.142, 63 220 C 63 221.918, 65.383 222.808, 66.346 221.250 C 66.601 220.837, 68.315 220.578, 70.155 220.673 C 71.995 220.768, 74.550 220.881, 75.833 220.923 C 77.249 220.970, 77.992 221.492, 77.723 222.250 C 77.479 222.938, 76.317 223.393, 75.140 223.262 C 72.699 222.990, 72.241 224.495, 74.500 225.362 C 77.148 226.378, 78.951 224.895, 80.056 220.792 C 81.405 215.783, 80.259 212.052, 78.661 216.250 C 77.441 219.455, 74.499 220.153, 75.500 217 C 75.849 215.900, 75.879 215, 75.567 215 C 75.255 215, 74.100 215.900, 73 217 C 70.402 219.598, 69.220 219.528, 68.796 216.750 C 68.579 215.329, 67.909 214.655, 66.976 214.921 C 66.164 215.153, 64.195 215.378, 62.601 215.421 C 60.662 215.474, 59.455 216.162, 58.958 217.500 C 58.277 219.332, 58.155 219.353, 57.500 217.750 C 56.522 215.353, 55.114 215.555, 54.031 218.250 C 53.163 220.410, 53.124 220.417, 53.063 218.417 C 52.964 215.146, 51.899 214.859, 49.795 217.534 C 46.806 221.333, 45.640 220.645, 46.345 215.500 C 46.940 211.158, 45.854 209.333, 44.607 212.582 M 111.176 212.047 C 108.115 213.290, 108.698 216.089, 112.387 217.857 C 114.577 218.906, 114.926 219.433, 113.874 220.099 C 113.118 220.578, 111.713 220.976, 110.750 220.985 C 109.787 220.993, 109 221.450, 109 222 C 109 223.513, 112.272 223.198, 114.777 221.443 C 117.765 219.351, 117.581 218.352, 113.854 216.425 C 111.435 215.173, 111.031 214.596, 112.104 213.922 C 112.872 213.440, 114.341 213.308, 115.368 213.628 C 116.657 214.029, 117.097 213.790, 116.785 212.855 C 116.213 211.137, 114.149 210.839, 111.176 212.047 M 149.750 211.571 C 149.338 211.990, 149 213.158, 149 214.167 C 149 215.175, 148.325 216, 147.500 216 C 146.675 216, 146 216.675, 146 217.500 C 146 218.325, 145.812 219, 145.582 219 C 145.352 219, 144.396 219.295, 143.457 219.655 C 141.861 220.267, 141.863 220.139, 143.484 217.665 C 145.119 215.169, 145.120 214.983, 143.500 214.362 C 142.297 213.900, 141.046 214.646, 139.319 216.851 C 137.964 218.583, 136.143 220, 135.273 220 C 133.856 220, 133.863 219.809, 135.345 218.171 C 137.573 215.709, 137.432 214, 135 214 C 133.900 214, 133 214.499, 133 215.108 C 133 215.781, 132.050 215.978, 130.583 215.610 C 128.596 215.111, 127.987 215.493, 127.162 217.752 C 126.330 220.029, 126.144 220.143, 126.079 218.417 C 125.955 215.156, 124.736 214.703, 122.811 217.205 L 121.044 219.500 121.022 217.250 C 121.010 216.012, 120.550 215, 120 215 C 118.564 215, 118.767 219.299, 120.303 221.399 C 121.491 223.025, 121.722 223.040, 122.934 221.579 C 124.148 220.117, 124.375 220.130, 125.544 221.729 C 126.724 223.343, 126.922 223.265, 128.073 220.740 C 129.539 217.521, 131.549 217.168, 132.290 220 C 132.854 222.159, 135.919 222.681, 137.682 220.918 C 138.458 220.142, 139.335 220.192, 140.784 221.097 C 142.466 222.148, 143.248 222.068, 145.460 220.618 C 147.947 218.989, 148.096 218.987, 147.808 220.585 C 147.639 221.524, 148.030 222.478, 148.678 222.706 C 149.353 222.942, 149.993 221.953, 150.178 220.386 C 150.582 216.958, 152.735 216.100, 153.173 219.192 C 153.429 220.996, 154.046 221.438, 156 221.217 C 157.375 221.062, 159.588 220.837, 160.917 220.717 C 162.246 220.598, 163.521 219.938, 163.750 219.250 C 164.352 217.444, 166 217.713, 166 219.617 C 166 220.831, 166.667 221.106, 168.680 220.721 C 170.155 220.439, 172.107 220.674, 173.019 221.244 C 174.165 221.960, 175.256 221.956, 176.547 221.234 C 177.985 220.429, 178.697 220.569, 179.634 221.844 C 180.722 223.326, 180.958 223.219, 181.868 220.836 C 182.428 219.370, 183.845 217.867, 185.018 217.494 C 187.670 216.652, 186.693 215.516, 183.261 215.451 C 181.846 215.425, 179.654 216.437, 178.390 217.701 C 175.317 220.773, 173.527 220.651, 175.585 217.510 C 177.102 215.196, 177.097 214.974, 175.511 214.366 C 174.344 213.918, 173.054 214.626, 171.426 216.606 C 169.048 219.499, 168.008 219.257, 166.679 215.500 C 166.465 214.896, 165.706 215.011, 164.760 215.792 C 163.481 216.847, 163.110 216.847, 162.733 215.792 C 162.426 214.932, 161.533 215.419, 160.063 217.250 C 158.849 218.762, 157.143 220, 156.272 220 C 154.856 220, 154.863 219.809, 156.345 218.171 C 157.255 217.165, 158 215.815, 158 215.171 C 158 213.744, 154.362 213.606, 153.500 215 C 152.390 216.797, 151.139 216.053, 150.816 213.404 C 150.642 211.976, 150.162 211.151, 149.750 211.571 M 195.250 211.706 C 193.246 212.092, 193 212.733, 193 217.570 C 193 222.902, 194.553 225.168, 195.180 220.750 C 195.386 219.304, 196.304 218.386, 197.750 218.180 C 200.876 217.736, 200.580 216, 197.378 216 C 195.160 216, 194.947 215.768, 196 214.500 C 196.685 213.675, 198.090 213, 199.122 213 C 200.155 213, 201 212.550, 201 212 C 201 210.992, 199.385 210.909, 195.250 211.706 M 242.872 211.721 C 239.563 212.072, 239.191 212.430, 238.633 215.803 C 238.297 217.836, 238.017 220.063, 238.011 220.750 C 237.998 222.250, 244.774 222.439, 247 221 C 248.693 219.906, 247.967 219.715, 243.138 219.985 C 239.043 220.213, 239.703 218.509, 244.045 217.641 C 245.743 217.301, 246.888 216.629, 246.590 216.146 C 246.292 215.663, 244.912 215.485, 243.524 215.751 C 242.044 216.034, 241 215.771, 241 215.117 C 241 214.502, 241.863 214, 242.918 214 C 245.531 214, 248 212.976, 248 211.893 C 248 211.402, 247.662 211.076, 247.250 211.168 C 246.838 211.261, 244.868 211.509, 242.872 211.721 M 288.952 212.838 C 286.343 214.950, 286.941 216.647, 290.813 218.119 C 292.924 218.922, 293.148 219.295, 291.966 220.042 C 291.160 220.552, 289.712 220.976, 288.750 220.985 C 287.788 220.993, 287 221.450, 287 222 C 287 223.267, 289.141 223.277, 292.435 222.025 C 295.698 220.784, 295.729 218.289, 292.500 216.818 C 291.125 216.192, 290 215.328, 290 214.899 C 290 213.436, 292.084 212.825, 293.386 213.905 C 295.098 215.326, 296.297 214.062, 294.869 212.342 C 293.352 210.514, 291.646 210.657, 288.952 212.838 M 327.639 211.694 C 327.288 212.046, 327 213.158, 327 214.167 C 327 215.175, 326.377 216, 325.617 216 C 324.856 216, 323.998 216.900, 323.710 218 C 323.423 219.100, 322.400 220, 321.439 220 C 319.808 220, 319.802 219.877, 321.345 218.171 C 323.573 215.709, 323.432 214, 321 214 C 319.900 214, 319 214.432, 319 214.961 C 319 216.405, 314.831 220, 313.156 220 C 311.937 220, 311.968 219.692, 313.345 218.171 C 314.255 217.165, 315 215.815, 315 215.171 C 315 213.696, 312.345 213.633, 311.446 215.087 C 311.077 215.685, 309.918 215.950, 308.872 215.677 C 307.545 215.330, 306.533 215.984, 305.525 217.840 C 304.174 220.328, 304.077 220.358, 304.040 218.309 C 303.983 215.165, 302.140 214.464, 301.089 217.186 L 300.196 219.500 299.198 217 C 298.404 215.011, 298.069 214.822, 297.559 216.078 C 296.816 217.907, 298.515 223, 299.868 223 C 300.373 223, 301.089 222.213, 301.460 221.250 C 302.097 219.597, 302.190 219.600, 303.148 221.305 C 303.949 222.732, 304.459 222.864, 305.581 221.933 C 306.361 221.285, 307 220.135, 307 219.378 C 307 217.242, 309.702 217.754, 310.290 220 C 310.854 222.159, 313.919 222.681, 315.682 220.918 C 316.458 220.142, 317.335 220.192, 318.784 221.097 C 320.463 222.146, 321.243 222.071, 323.402 220.656 C 325.904 219.017, 326 219.029, 326 220.977 C 326 224.016, 327.820 223.411, 328.184 220.250 C 328.410 218.281, 329.139 217.409, 330.750 217.180 C 331.988 217.005, 333 216.412, 333 215.863 C 333 215.298, 332.070 215.160, 330.854 215.546 C 329.033 216.124, 328.791 215.907, 329.260 214.115 C 329.816 211.987, 328.826 210.507, 327.639 211.694 M 83.120 215.776 C 82.558 216.827, 82.505 218.200, 82.998 218.996 C 83.555 219.899, 83.303 220.789, 82.276 221.540 C 81.360 222.210, 81.108 222.949, 81.677 223.301 C 82.819 224.006, 90 218.373, 90 216.772 C 90 216.177, 89.177 216.435, 88.171 217.345 C 85.723 219.560, 84.654 219.433, 85.289 217.001 C 85.981 214.356, 84.367 213.445, 83.120 215.776 M 95.508 216.401 C 94.129 217.780, 93 219.394, 93 219.986 C 93 221.455, 95.622 222.352, 97.152 221.406 C 97.838 220.982, 99.426 220.590, 100.682 220.535 C 103.236 220.424, 105.743 218.410, 104.667 217.333 C 104.282 216.948, 103.434 217.166, 102.783 217.817 C 101.050 219.550, 100 219.264, 100 217.059 C 100 213.956, 98.215 213.695, 95.508 216.401 M 211.021 214.987 C 210.267 215.453, 207.930 215.677, 205.827 215.484 C 202.477 215.177, 201.929 215.434, 201.394 217.565 C 201.059 218.902, 201.077 220.759, 201.435 221.692 C 201.973 223.092, 202.424 222.831, 204.028 220.194 C 206.273 216.502, 208.695 215.983, 208.579 219.219 C 208.473 222.193, 211.434 222.684, 213.677 220.065 C 215.922 217.443, 218 217.412, 218 220 C 218 222.399, 219.538 222.647, 220.405 220.387 C 220.926 219.030, 221.276 218.984, 222.620 220.100 C 223.961 221.213, 224.407 221.163, 225.412 219.789 C 226.517 218.279, 226.691 218.282, 227.701 219.827 C 228.549 221.125, 229.196 221.260, 230.587 220.429 C 231.574 219.839, 232.576 218.714, 232.815 217.929 C 233.165 216.778, 232.992 216.743, 231.925 217.750 C 230.045 219.524, 229.315 219.313, 228.660 216.806 C 228.099 214.663, 228.039 214.655, 226.043 216.461 C 224.220 218.111, 224 218.132, 224 216.655 C 224 214.705, 222.877 214.523, 221.200 216.200 C 220.267 217.133, 220 217.118, 220 216.133 C 220 215.328, 219.283 215.093, 218.038 215.488 C 216.959 215.831, 215.247 215.667, 214.234 215.125 C 213.191 214.567, 211.797 214.507, 211.021 214.987 M 258.500 215 C 258.160 215.550, 256.994 216, 255.910 216 C 254.825 216, 253.650 216.747, 253.300 217.660 C 252.766 219.051, 252.523 218.942, 251.801 216.991 C 251.249 215.500, 250.593 215.007, 249.978 215.622 C 248.945 216.655, 250.843 223, 252.184 223 C 252.594 223, 253.456 221.988, 254.100 220.750 C 255.794 217.495, 255.773 217.498, 257.858 220.072 C 259.523 222.129, 260.087 222.281, 262.298 221.274 C 264.428 220.303, 264.936 220.389, 265.483 221.810 C 266.068 223.327, 266.242 223.296, 267.192 221.500 C 268.349 219.311, 270.916 217, 272.191 217 C 272.636 217, 273 217.825, 273 218.833 C 273 221.433, 273.974 222.084, 276.131 220.930 C 278.123 219.864, 278.516 220.638, 277.110 222.857 C 276.558 223.727, 275.398 223.978, 273.875 223.555 C 271.581 222.919, 271.566 222.950, 273.441 224.448 C 275.868 226.388, 276.472 226.386, 278.429 224.429 C 280.179 222.678, 280.710 213.443, 279 214.500 C 278.450 214.840, 278 215.711, 278 216.437 C 278 217.162, 277.250 218.373, 276.334 219.128 C 274.838 220.360, 274.734 220.237, 275.312 217.915 C 275.937 215.403, 275.822 215.332, 271.274 215.415 C 267.828 215.478, 265.998 216.094, 264.342 217.750 C 261.368 220.722, 259.514 220.671, 261.480 217.670 C 262.320 216.389, 262.705 215.039, 262.337 214.670 C 261.342 213.675, 259.205 213.859, 258.500 215 M 371.692 216.931 C 372.242 219.035, 374.508 218.724, 375.391 216.423 C 375.769 215.439, 375.205 215, 373.562 215 C 371.708 215, 371.298 215.423, 371.692 216.931 M 378.479 218.024 C 376.973 219.688, 376.932 220, 378.223 220 C 380.143 220, 382.429 217.383, 381.182 216.613 C 380.679 216.302, 379.462 216.937, 378.479 218.024 M 96.020 218.476 C 95.231 219.426, 95.155 220, 95.819 220 C 97.027 220, 98.436 218.103, 97.743 217.409 C 97.491 217.158, 96.716 217.638, 96.020 218.476 M 210.459 218.067 C 210.096 218.653, 210.040 219.373, 210.333 219.667 C 211.050 220.383, 213 219.121, 213 217.941 C 213 216.663, 211.274 216.748, 210.459 218.067 M 353.459 218.067 C 353.096 218.653, 353.040 219.373, 353.333 219.667 C 354.050 220.383, 356 219.121, 356 217.941 C 356 216.663, 354.274 216.748, 353.459 218.067" stroke="none" fill="#fac2ca" fill-rule="evenodd"/><path d="M 65.684 4.250 C 65.391 5.488, 64.138 12.462, 62.898 19.750 L 60.645 33 33.822 33 L 7 33 7 112 L 7 191 119.250 191.031 C 184.988 191.049, 234.608 191.460, 239 192.023 C 243.125 192.552, 253.925 194.319, 263 195.950 C 272.075 197.581, 293.675 201.421, 311 204.482 C 351.505 211.639, 347.491 210.627, 345.758 213.238 C 343.789 216.203, 342.291 216.492, 341.517 214.055 C 340.453 210.700, 338.492 211.704, 337.286 216.224 C 336.145 220.496, 336.347 222, 338.059 222 C 338.577 222, 339.010 220.537, 339.022 218.750 L 339.044 215.500 340.869 217.873 L 342.694 220.245 344.847 217.934 L 347 215.623 347 219.311 C 347 221.340, 347.450 223, 348 223 C 348.550 223, 349 220.600, 349 217.667 C 349 214.733, 349.219 212.114, 349.488 211.846 C 349.961 211.372, 368.158 213.898, 368.842 214.533 C 369.030 214.707, 368.759 215.608, 368.241 216.534 C 367.361 218.107, 367.254 218.104, 366.637 216.497 C 366.100 215.096, 365.698 215.005, 364.488 216.010 C 363.428 216.890, 363 216.917, 363 216.103 C 363 215.384, 362.072 215.195, 360.487 215.593 C 358.990 215.968, 357.327 215.686, 356.372 214.894 C 355.005 213.759, 354.495 213.906, 352.885 215.893 C 349.177 220.473, 352.148 224.088, 356.365 220.127 C 359.017 217.636, 360 217.450, 360 219.441 C 360 221.809, 362.033 222.332, 363.535 220.350 C 364.354 219.268, 364.950 219.019, 364.968 219.750 C 365.015 221.608, 367.748 221.262, 368.920 219.250 C 369.874 217.612, 369.941 217.620, 369.970 219.367 C 369.992 220.770, 370.525 221.096, 372.115 220.680 C 373.279 220.376, 375.079 220.657, 376.115 221.304 C 377.576 222.216, 378.459 222.194, 380.041 221.207 C 381.163 220.506, 382.541 220.217, 383.104 220.564 C 383.666 220.912, 384.942 220.457, 385.939 219.555 C 387.621 218.033, 387.799 218.034, 388.389 219.571 C 388.824 220.706, 389.809 221.078, 391.512 220.753 C 393.177 220.435, 394 220.728, 394 221.639 C 394 222.387, 394.661 223, 395.469 223 C 396.423 223, 396.715 222.422, 396.304 221.349 C 395.744 219.892, 396.304 219.779, 401.085 220.389 C 404.063 220.769, 411.179 221.971, 416.898 223.059 C 422.617 224.147, 427.504 224.829, 427.758 224.575 C 428.013 224.320, 432.432 200.124, 437.579 170.806 C 442.725 141.488, 448.819 107.031, 451.120 94.236 C 453.422 81.440, 455.055 70.722, 454.751 70.418 C 454.447 70.113, 443.016 67.875, 429.349 65.443 C 415.682 63.012, 403.938 60.806, 403.250 60.542 C 402.335 60.191, 402 56.435, 402 46.531 L 402 33 322.936 33 L 243.871 33 219.186 28.528 C 163.449 18.430, 69.880 2, 68.112 2 C 66.971 2, 66.005 2.895, 65.684 4.250 M 34.215 54.241 C 33.609 54.971, 31.956 64.553, 30.541 75.534 C 29.127 86.515, 27.761 96.440, 27.506 97.588 C 27.251 98.737, 27.681 100.537, 28.460 101.588 C 31.314 105.437, 32.810 101.560, 34.974 84.702 C 36.088 76.024, 37 68.176, 37 67.262 C 37 64.152, 38.725 67.401, 46.014 84.235 C 49.999 93.440, 53.899 101.501, 54.680 102.149 C 57.772 104.715, 58.858 100.978, 61.780 77.723 C 64.189 58.545, 64.424 54.767, 63.270 53.809 C 60.459 51.476, 59.158 55.221, 56.874 72.231 C 55.639 81.432, 54.420 88.753, 54.166 88.500 C 53.912 88.246, 50.255 80.268, 46.040 70.771 C 38.556 53.911, 36.673 51.279, 34.215 54.241 M 77.030 54.464 C 75.256 56.601, 69.891 98.929, 71.107 101.199 C 71.948 102.771, 73.512 103, 83.413 103 C 95.209 103, 98.002 102.053, 96.643 98.513 C 96.178 97.301, 94.056 97, 85.964 97 C 76.824 97, 75.912 96.834, 76.361 95.250 C 76.633 94.287, 77.156 90.705, 77.522 87.289 L 78.187 81.078 86.344 80.789 C 93.737 80.527, 94.500 80.313, 94.500 78.500 C 94.500 76.695, 93.735 76.471, 86.643 76.206 L 78.786 75.912 79.420 71.206 C 79.768 68.618, 80.306 64.813, 80.615 62.750 L 81.176 59 90.465 59 C 100.131 59, 102.933 57.875, 101.643 54.513 C 100.808 52.336, 78.832 52.292, 77.030 54.464 M 116.270 54.435 C 112.193 56.268, 109.009 61.411, 109.004 66.173 C 108.999 70.644, 112.163 74.733, 118.499 78.447 C 123.758 81.528, 125 83.499, 125 88.760 C 125 93.031, 122.385 96.265, 118.088 97.311 C 115.188 98.016, 112.592 96.794, 108.241 92.675 C 105.211 89.807, 104.865 89.706, 103.331 91.241 C 101.796 92.775, 101.871 93.142, 104.392 96.447 C 109.667 103.363, 117.044 104.891, 123.991 100.505 C 128.684 97.543, 131.001 93.506, 130.996 88.300 C 130.991 82.982, 128.106 78.826, 121.134 74.091 C 117.838 71.853, 114.867 69.155, 114.530 68.096 C 113.427 64.620, 115.087 60.867, 118.332 59.502 C 121.702 58.085, 123.116 58.366, 127.327 61.286 C 132.371 64.783, 133.955 59.543, 128.977 55.830 C 125.539 53.266, 120.179 52.678, 116.270 54.435 M 169.239 54.250 C 168.685 54.938, 167.469 61.350, 166.535 68.500 C 164.196 86.407, 160.028 95.313, 153.388 96.594 C 146.117 97.997, 143.304 85.513, 146.385 65.512 C 147.956 55.311, 147.640 53.540, 144.356 54.167 C 141.679 54.677, 139.905 63.911, 139.683 78.500 C 139.524 88.916, 139.773 91.020, 141.569 94.443 C 145.653 102.228, 153.012 104.585, 159.125 100.065 L 162 97.940 162 100.154 C 162 103.891, 157.967 110.966, 154.947 112.527 C 153.381 113.337, 150.893 114, 149.418 114 C 146.355 114, 140.476 110.684, 139.631 108.480 C 138.940 106.681, 135.342 106.513, 134.716 108.250 C 133.899 110.514, 137.242 114.767, 141.517 116.901 C 152.355 122.314, 163.615 116.570, 167.031 103.886 C 169.083 96.263, 173.783 56.544, 172.845 54.750 C 171.765 52.685, 170.626 52.527, 169.239 54.250 M 195.208 53.850 C 194.497 54.301, 189.257 64.757, 183.564 77.085 C 175.520 94.505, 173.427 99.904, 174.174 101.311 C 175.752 104.283, 177.288 102.846, 181.500 94.462 L 185.500 86.500 192.257 86.204 C 199.895 85.870, 200.145 86.114, 201.522 95.296 C 201.902 97.834, 202.813 100.718, 203.546 101.705 C 204.730 103.301, 205.044 103.333, 206.379 102 C 207.710 100.669, 207.713 99.599, 206.398 92.500 C 205.583 88.100, 203.792 78.425, 202.418 71 C 199.156 53.376, 198.482 51.773, 195.208 53.850 M 252.280 54.971 C 241.612 61.475, 236.149 81.751, 241.720 94.166 C 246.958 105.840, 259.493 105.016, 266.062 92.564 C 268.169 88.569, 268.297 87.813, 267 86.987 C 264.763 85.561, 264.643 85.634, 261.201 90.518 C 257.128 96.296, 253.784 97.956, 250.251 95.953 C 242.668 91.655, 243.938 71.212, 252.344 62.250 C 256.661 57.648, 259.943 57.878, 264.058 63.073 C 266.840 66.586, 267.478 66.951, 268.700 65.729 C 270.785 63.643, 269.373 59.535, 265.360 56.011 C 261.284 52.432, 257.002 52.092, 252.280 54.971 M 292.347 53.765 C 290.846 54.722, 271 97.734, 271 100.031 C 271 101.943, 273.137 103.209, 274.591 102.157 C 275.091 101.796, 277.184 98.013, 279.242 93.750 L 282.984 86 289.912 86 L 296.841 86 297.468 89.250 C 299.923 101.973, 301.360 104.681, 303.980 101.524 C 304.831 100.499, 304.079 94.696, 300.913 77.833 C 296.332 53.439, 295.690 51.635, 292.347 53.765 M 319.239 54.250 C 318.299 55.418, 314.482 81.925, 313.285 95.595 C 312.854 100.517, 313.050 101.805, 314.302 102.286 C 315.156 102.613, 316.367 102.263, 316.993 101.508 C 317.965 100.337, 319.917 90.323, 319.980 86.182 C 319.991 85.458, 324.023 88.574, 328.939 93.108 C 339.884 103.202, 340.366 103.491, 342.566 101.291 C 344.194 99.663, 343.704 99.024, 333.484 89.463 L 322.681 79.356 331.449 69.928 C 343.131 57.366, 343.786 56.357, 341.650 54.222 C 340.106 52.678, 339.376 53.214, 331.023 62.032 C 326.091 67.239, 322.051 71.050, 322.047 70.500 C 322.043 69.950, 322.487 66.404, 323.034 62.620 C 323.754 57.638, 323.715 55.362, 322.892 54.370 C 321.482 52.671, 320.535 52.640, 319.239 54.250 M 356.113 55.250 C 355.653 56.487, 354.052 67.085, 352.557 78.800 C 350.418 95.551, 350.095 100.409, 351.041 101.550 C 352.802 103.671, 374.225 103.639, 375.989 101.513 C 376.668 100.695, 376.963 99.345, 376.643 98.513 C 376.178 97.300, 374.054 97, 365.943 97 L 355.824 97 356.412 93 C 356.735 90.800, 357.265 87.200, 357.588 85 L 358.176 81 366.029 81 C 374.032 81, 375.478 80.410, 374.396 77.590 C 373.913 76.332, 372.219 76, 366.278 76 L 358.770 76 359.425 70.250 C 360.808 58.118, 359.831 59.110, 370.716 58.785 C 378.612 58.550, 380.481 58.189, 381.394 56.722 C 383.209 53.803, 380.470 53.032, 368.225 53.015 C 357.441 53.001, 356.914 53.098, 356.113 55.250 M 193.271 69.500 C 192.146 71.700, 190.523 75.188, 189.664 77.250 L 188.102 81 193.429 81 L 198.756 81 197.359 74.250 C 196.590 70.537, 195.816 67.050, 195.639 66.500 C 195.461 65.950, 194.395 67.300, 193.271 69.500 M 289.215 72.519 C 287.447 76.104, 286 79.479, 286 80.019 C 286 80.559, 288.280 81, 291.067 81 C 295.417 81, 296.064 80.752, 295.636 79.250 C 295.362 78.287, 294.625 74.912, 293.998 71.750 C 293.371 68.588, 292.762 66, 292.644 66 C 292.526 66, 290.983 68.934, 289.215 72.519 M 45.935 129.127 C 40.092 140.580, 28 167.586, 28 169.182 C 28 170.259, 28.726 171, 29.781 171 C 31 171, 32.731 168.636, 35.273 163.500 L 38.984 156 45.453 156 L 51.923 156 52.867 159.750 C 53.386 161.813, 54.099 165.188, 54.451 167.250 C 54.935 170.086, 55.567 171, 57.045 171 C 58.585 171, 58.999 170.310, 58.994 167.750 C 58.991 165.963, 58.590 162.925, 58.102 161 C 57.614 159.075, 55.940 150.599, 54.383 142.165 C 52.239 130.551, 51.128 126.604, 49.806 125.896 C 48.371 125.128, 47.682 125.703, 45.935 129.127 M 112.095 125.877 C 110.655 126.833, 104.589 167.170, 105.497 169.750 C 106.156 171.622, 113.874 171.241, 118.581 169.103 C 128.002 164.824, 133.125 155.469, 133.125 142.547 C 133.125 134.571, 131.036 130.270, 125.972 127.821 C 121.622 125.717, 113.953 124.643, 112.095 125.877 M 172.259 127.927 C 167.389 131.455, 163.361 139.150, 161.987 147.551 C 160.877 154.332, 161.463 158.893, 164.122 164.184 C 167.950 171.800, 175.263 173.342, 181.516 167.852 C 184.969 164.820, 188 160.238, 188 158.050 C 188 155.524, 184.115 157.369, 180.615 161.556 C 177.370 165.439, 176.340 166.067, 173.653 165.806 C 171.192 165.567, 170.116 164.732, 168.752 162 C 166.324 157.140, 166.461 147.516, 169.056 140.579 C 171.103 135.110, 175.739 130, 178.655 130 C 179.481 130, 181.949 131.810, 184.139 134.022 C 186.329 136.234, 188.543 137.782, 189.060 137.463 C 191.865 135.729, 187.467 127.707, 182.824 126.088 C 178.159 124.462, 176.689 124.718, 172.259 127.927 M 206.367 127.041 C 199.655 131.341, 194.990 141.715, 195.022 152.270 C 195.059 164.449, 199.390 171, 207.406 171 C 210.825 171, 211.994 170.349, 215.934 166.250 C 220.119 161.896, 223.911 153.782, 224.036 148.912 C 224.056 148.135, 225.969 146.600, 228.286 145.500 C 230.647 144.379, 232.655 142.665, 232.852 141.600 C 233.170 139.887, 232.751 139.762, 228.602 140.331 C 224.355 140.913, 224 140.795, 224 138.797 C 224 135.186, 220.222 128.562, 217.117 126.728 C 213.306 124.477, 210.229 124.567, 206.367 127.041 M 244.907 126.490 C 236.628 130.991, 230.640 147.132, 233.012 158.557 C 235.340 169.773, 244.591 174.580, 251.943 168.395 C 256.039 164.948, 259.663 158.611, 261.101 152.382 C 262.143 147.867, 262.706 147.125, 266.384 145.415 C 271.302 143.127, 272.529 140, 268.508 140 C 267.056 140, 264.998 140.466, 263.934 141.035 C 262.255 141.934, 262 141.731, 262 139.503 C 262 135.485, 259.569 130.657, 256.059 127.703 C 252.516 124.721, 248.886 124.326, 244.907 126.490 M 278.197 126.309 C 277.674 126.964, 276.942 130.200, 276.570 133.500 C 276.197 136.800, 274.981 146.191, 273.866 154.370 C 271.826 169.344, 272.053 171.961, 275.288 170.720 C 276.693 170.181, 277.968 165.032, 277.989 159.809 C 277.995 158.329, 278.463 156.832, 279.029 156.482 C 279.595 156.133, 283.682 159.256, 288.112 163.423 C 296.137 170.973, 300 172.817, 300 169.097 C 300 167.973, 296.126 163.638, 290.529 158.501 L 281.058 149.807 290.529 139.443 C 295.738 133.742, 300 128.596, 300 128.008 C 300 127.419, 299.237 126.645, 298.305 126.287 C 297.053 125.806, 294.423 127.968, 288.231 134.568 C 283.623 139.481, 280.083 142.600, 280.365 141.500 C 280.647 140.400, 281.176 136.528, 281.540 132.896 C 282.083 127.475, 281.928 126.186, 280.674 125.705 C 279.834 125.383, 278.719 125.655, 278.197 126.309 M 330.103 126.375 C 329.220 127.439, 324 163.714, 324 168.786 C 324 170.948, 324.282 171, 335.941 171 C 348.229 171, 351.178 170.066, 347.462 167.348 C 346.262 166.471, 342.688 166, 337.229 166 L 328.841 166 329.356 163.250 C 329.640 161.738, 330.153 158.363, 330.497 155.750 L 331.123 151 338.502 151 C 342.991 151, 346.161 150.549, 346.594 149.848 C 347.878 147.770, 343.791 146, 337.707 146 L 331.797 146 332.512 138.750 C 332.905 134.762, 333.427 131.162, 333.672 130.750 C 333.918 130.338, 338.156 130, 343.090 130 C 350.395 130, 352.177 129.702, 352.677 128.399 C 353.015 127.519, 352.663 126.393, 351.896 125.899 C 349.836 124.571, 331.263 124.978, 330.103 126.375 M 367.500 126.427 C 363.199 128.290, 360.908 131.268, 360.303 135.778 C 359.607 140.966, 360.924 143.149, 367.780 148.171 C 374.723 153.256, 374.974 153.599, 374.953 158 C 374.935 161.861, 373.625 164.074, 370.316 165.837 C 366.772 167.724, 364.605 167.210, 360.193 163.433 C 354.161 158.270, 351.753 160.366, 356.527 166.624 C 363.943 176.347, 380.273 170.431, 380.273 158.022 C 380.273 152.846, 378.183 149.842, 371.019 144.714 C 364.406 139.981, 363.701 138.618, 365.568 134.177 C 367.114 130.499, 371.211 129.030, 374.401 131.010 C 375.555 131.726, 377.276 132.793, 378.225 133.381 C 380.819 134.988, 382.567 132.880, 380.879 130.178 C 378.429 126.254, 372.035 124.461, 367.500 126.427 M 70.958 126.750 C 70.935 127.162, 69.650 136.725, 68.101 148 C 66.553 159.275, 65.494 169.063, 65.750 169.750 C 66.503 171.778, 68.981 171.180, 69.898 168.750 C 70.364 167.512, 71.520 159.975, 72.466 152 C 73.413 144.025, 74.365 137.318, 74.581 137.095 C 74.987 136.679, 75.621 138.036, 84.585 158.500 C 88.588 167.639, 90.329 170.575, 91.885 170.815 C 94.408 171.204, 94.421 171.152, 96.990 150 C 98.092 140.925, 99.242 132.032, 99.545 130.237 C 99.955 127.804, 99.685 126.816, 98.481 126.354 C 97.592 126.013, 96.483 126.132, 96.015 126.617 C 95.547 127.103, 94.199 134.466, 93.019 142.980 C 91.839 151.493, 90.739 158.594, 90.574 158.759 C 90.409 158.924, 86.950 151.624, 82.887 142.537 C 76.510 128.274, 75.192 126.015, 73.250 126.008 C 72.013 126.004, 70.981 126.338, 70.958 126.750 M 312.572 129.693 C 310.826 140.364, 307.425 168.776, 307.771 169.812 C 307.988 170.465, 308.990 171, 309.995 171 C 312.075 171, 312.049 171.119, 314.955 148.500 C 317.865 125.847, 317.852 126.550, 315.347 126.193 C 313.551 125.937, 313.092 126.517, 312.572 129.693 M 114.587 133.633 C 113.526 140.166, 111.016 161.361, 111.008 163.858 C 111.001 165.928, 111.337 166.135, 113.750 165.548 C 121.737 163.604, 127.255 156.456, 128.563 146.361 C 129.770 137.037, 126.401 131.266, 119.185 130.298 C 115.230 129.768, 115.213 129.780, 114.587 133.633 M 210.512 132.962 C 209.755 135.348, 211.252 138.363, 214.230 140.449 C 218.008 143.095, 219.339 142.474, 218.674 138.376 C 217.657 132.110, 211.978 128.343, 210.512 132.962 M 248.667 131.667 C 247.192 133.141, 248.157 136.311, 250.923 139.077 C 254.985 143.139, 257.454 143.020, 256.610 138.802 C 255.413 132.815, 251.254 129.079, 248.667 131.667 M 202.413 139.127 C 199.765 144.189, 199.344 157.467, 201.689 162 C 206.066 170.461, 216.082 163.742, 218.528 150.703 C 219.170 147.283, 219.042 146.999, 216.861 146.993 C 213.503 146.984, 208.984 143.719, 206.397 139.431 L 204.178 135.755 202.413 139.127 M 240.001 140.314 C 237.195 146.592, 237.029 156.347, 239.638 161.688 C 241.126 164.735, 242.129 165.561, 244.632 165.805 C 247.217 166.056, 248.304 165.454, 250.854 162.361 C 253.722 158.882, 257 151.393, 257 148.322 C 257 147.595, 255.988 146.998, 254.750 146.996 C 251.189 146.990, 246.267 143.422, 244.122 139.292 L 242.153 135.500 240.001 140.314 M 44.309 144.082 L 41.160 151 46.189 151 C 50.902 151, 51.182 150.859, 50.656 148.750 C 50.348 147.512, 49.790 144.578, 49.416 142.228 C 49.043 139.878, 48.449 137.778, 48.097 137.560 C 47.746 137.343, 46.041 140.278, 44.309 144.082 M 37 211.923 C 37 212.431, 35.441 214.889, 33.535 217.386 C 31.629 219.883, 30.468 222.171, 30.954 222.472 C 31.441 222.772, 32.438 222.421, 33.169 221.690 C 35.278 219.585, 39.040 218.941, 39.668 220.578 C 39.968 221.360, 40.800 222, 41.515 222 C 42.480 222, 42.258 220.577, 40.658 216.502 C 38.725 211.578, 37 209.418, 37 211.923 M 44.607 212.582 C 44.273 213.452, 44 215.716, 44 217.613 C 44 221.712, 46.211 223.024, 48.947 220.548 C 50.716 218.947, 50.855 218.968, 51.477 220.927 C 52.253 223.372, 53.820 223.634, 54.655 221.457 C 55.180 220.088, 55.456 220.103, 57.098 221.589 C 58.848 223.173, 59.004 223.121, 59.950 220.632 C 61.129 217.529, 63 217.142, 63 220 C 63 221.918, 65.383 222.808, 66.346 221.250 C 66.601 220.837, 68.315 220.578, 70.155 220.673 C 71.995 220.768, 74.550 220.881, 75.833 220.923 C 77.249 220.970, 77.992 221.492, 77.723 222.250 C 77.479 222.938, 76.317 223.393, 75.140 223.262 C 72.699 222.990, 72.241 224.495, 74.500 225.362 C 77.148 226.378, 78.951 224.895, 80.056 220.792 C 81.405 215.783, 80.259 212.052, 78.661 216.250 C 77.441 219.455, 74.499 220.153, 75.500 217 C 75.849 215.900, 75.879 215, 75.567 215 C 75.255 215, 74.100 215.900, 73 217 C 70.402 219.598, 69.220 219.528, 68.796 216.750 C 68.579 215.329, 67.909 214.655, 66.976 214.921 C 66.164 215.153, 64.195 215.378, 62.601 215.421 C 60.662 215.474, 59.455 216.162, 58.958 217.500 C 58.277 219.332, 58.155 219.353, 57.500 217.750 C 56.522 215.353, 55.114 215.555, 54.031 218.250 C 53.163 220.410, 53.124 220.417, 53.063 218.417 C 52.964 215.146, 51.899 214.859, 49.795 217.534 C 46.806 221.333, 45.640 220.645, 46.345 215.500 C 46.940 211.158, 45.854 209.333, 44.607 212.582 M 111.176 212.047 C 108.115 213.290, 108.698 216.089, 112.387 217.857 C 114.577 218.906, 114.926 219.433, 113.874 220.099 C 113.118 220.578, 111.713 220.976, 110.750 220.985 C 109.787 220.993, 109 221.450, 109 222 C 109 223.513, 112.272 223.198, 114.777 221.443 C 117.765 219.351, 117.581 218.352, 113.854 216.425 C 111.435 215.173, 111.031 214.596, 112.104 213.922 C 112.872 213.440, 114.341 213.308, 115.368 213.628 C 116.657 214.029, 117.097 213.790, 116.785 212.855 C 116.213 211.137, 114.149 210.839, 111.176 212.047 M 149.750 211.571 C 149.338 211.990, 149 213.158, 149 214.167 C 149 215.175, 148.325 216, 147.500 216 C 146.675 216, 146 216.675, 146 217.500 C 146 218.325, 145.812 219, 145.582 219 C 145.352 219, 144.396 219.295, 143.457 219.655 C 141.861 220.267, 141.863 220.139, 143.484 217.665 C 145.119 215.169, 145.120 214.983, 143.500 214.362 C 142.297 213.900, 141.046 214.646, 139.319 216.851 C 137.964 218.583, 136.143 220, 135.273 220 C 133.856 220, 133.863 219.809, 135.345 218.171 C 137.573 215.709, 137.432 214, 135 214 C 133.900 214, 133 214.499, 133 215.108 C 133 215.781, 132.050 215.978, 130.583 215.610 C 128.596 215.111, 127.987 215.493, 127.162 217.752 C 126.330 220.029, 126.144 220.143, 126.079 218.417 C 125.955 215.156, 124.736 214.703, 122.811 217.205 L 121.044 219.500 121.022 217.250 C 121.010 216.012, 120.550 215, 120 215 C 118.564 215, 118.767 219.299, 120.303 221.399 C 121.491 223.025, 121.722 223.040, 122.934 221.579 C 124.148 220.117, 124.375 220.130, 125.544 221.729 C 126.724 223.343, 126.922 223.265, 128.073 220.740 C 129.539 217.521, 131.549 217.168, 132.290 220 C 132.854 222.159, 135.919 222.681, 137.682 220.918 C 138.458 220.142, 139.335 220.192, 140.784 221.097 C 142.466 222.148, 143.248 222.068, 145.460 220.618 C 147.947 218.989, 148.096 218.987, 147.808 220.585 C 147.639 221.524, 148.030 222.478, 148.678 222.706 C 149.353 222.942, 149.993 221.953, 150.178 220.386 C 150.582 216.958, 152.735 216.100, 153.173 219.192 C 153.429 220.996, 154.046 221.438, 156 221.217 C 157.375 221.062, 159.588 220.837, 160.917 220.717 C 162.246 220.598, 163.521 219.938, 163.750 219.250 C 164.352 217.444, 166 217.713, 166 219.617 C 166 220.831, 166.667 221.106, 168.680 220.721 C 170.155 220.439, 172.107 220.674, 173.019 221.244 C 174.165 221.960, 175.256 221.956, 176.547 221.234 C 177.985 220.429, 178.697 220.569, 179.634 221.844 C 180.722 223.326, 180.958 223.219, 181.868 220.836 C 182.428 219.370, 183.845 217.867, 185.018 217.494 C 187.670 216.652, 186.693 215.516, 183.261 215.451 C 181.846 215.425, 179.654 216.437, 178.390 217.701 C 175.317 220.773, 173.527 220.651, 175.585 217.510 C 177.102 215.196, 177.097 214.974, 175.511 214.366 C 174.344 213.918, 173.054 214.626, 171.426 216.606 C 169.048 219.499, 168.008 219.257, 166.679 215.500 C 166.465 214.896, 165.706 215.011, 164.760 215.792 C 163.481 216.847, 163.110 216.847, 162.733 215.792 C 162.426 214.932, 161.533 215.419, 160.063 217.250 C 158.849 218.762, 157.143 220, 156.272 220 C 154.856 220, 154.863 219.809, 156.345 218.171 C 157.255 217.165, 158 215.815, 158 215.171 C 158 213.744, 154.362 213.606, 153.500 215 C 152.390 216.797, 151.139 216.053, 150.816 213.404 C 150.642 211.976, 150.162 211.151, 149.750 211.571 M 195.250 211.706 C 193.246 212.092, 193 212.733, 193 217.570 C 193 222.902, 194.553 225.168, 195.180 220.750 C 195.386 219.304, 196.304 218.386, 197.750 218.180 C 200.876 217.736, 200.580 216, 197.378 216 C 195.160 216, 194.947 215.768, 196 214.500 C 196.685 213.675, 198.090 213, 199.122 213 C 200.155 213, 201 212.550, 201 212 C 201 210.992, 199.385 210.909, 195.250 211.706 M 242.872 211.721 C 239.563 212.072, 239.191 212.430, 238.633 215.803 C 238.297 217.836, 238.017 220.063, 238.011 220.750 C 237.998 222.250, 244.774 222.439, 247 221 C 248.693 219.906, 247.967 219.715, 243.138 219.985 C 239.043 220.213, 239.703 218.509, 244.045 217.641 C 245.743 217.301, 246.888 216.629, 246.590 216.146 C 246.292 215.663, 244.912 215.485, 243.524 215.751 C 242.044 216.034, 241 215.771, 241 215.117 C 241 214.502, 241.863 214, 242.918 214 C 245.531 214, 248 212.976, 248 211.893 C 248 211.402, 247.662 211.076, 247.250 211.168 C 246.838 211.261, 244.868 211.509, 242.872 211.721 M 288.952 212.838 C 286.343 214.950, 286.941 216.647, 290.813 218.119 C 292.924 218.922, 293.148 219.295, 291.966 220.042 C 291.160 220.552, 289.712 220.976, 288.750 220.985 C 287.788 220.993, 287 221.450, 287 222 C 287 223.267, 289.141 223.277, 292.435 222.025 C 295.698 220.784, 295.729 218.289, 292.500 216.818 C 291.125 216.192, 290 215.328, 290 214.899 C 290 213.436, 292.084 212.825, 293.386 213.905 C 295.098 215.326, 296.297 214.062, 294.869 212.342 C 293.352 210.514, 291.646 210.657, 288.952 212.838 M 327.639 211.694 C 327.288 212.046, 327 213.158, 327 214.167 C 327 215.175, 326.377 216, 325.617 216 C 324.856 216, 323.998 216.900, 323.710 218 C 323.423 219.100, 322.400 220, 321.439 220 C 319.808 220, 319.802 219.877, 321.345 218.171 C 323.573 215.709, 323.432 214, 321 214 C 319.900 214, 319 214.432, 319 214.961 C 319 216.405, 314.831 220, 313.156 220 C 311.937 220, 311.968 219.692, 313.345 218.171 C 314.255 217.165, 315 215.815, 315 215.171 C 315 213.696, 312.345 213.633, 311.446 215.087 C 311.077 215.685, 309.918 215.950, 308.872 215.677 C 307.545 215.330, 306.533 215.984, 305.525 217.840 C 304.174 220.328, 304.077 220.358, 304.040 218.309 C 303.983 215.165, 302.140 214.464, 301.089 217.186 L 300.196 219.500 299.198 217 C 298.404 215.011, 298.069 214.822, 297.559 216.078 C 296.816 217.907, 298.515 223, 299.868 223 C 300.373 223, 301.089 222.213, 301.460 221.250 C 302.097 219.597, 302.190 219.600, 303.148 221.305 C 303.949 222.732, 304.459 222.864, 305.581 221.933 C 306.361 221.285, 307 220.135, 307 219.378 C 307 217.242, 309.702 217.754, 310.290 220 C 310.854 222.159, 313.919 222.681, 315.682 220.918 C 316.458 220.142, 317.335 220.192, 318.784 221.097 C 320.463 222.146, 321.243 222.071, 323.402 220.656 C 325.904 219.017, 326 219.029, 326 220.977 C 326 224.016, 327.820 223.411, 328.184 220.250 C 328.410 218.281, 329.139 217.409, 330.750 217.180 C 331.988 217.005, 333 216.412, 333 215.863 C 333 215.298, 332.070 215.160, 330.854 215.546 C 329.033 216.124, 328.791 215.907, 329.260 214.115 C 329.816 211.987, 328.826 210.507, 327.639 211.694 M 83.120 215.776 C 82.558 216.827, 82.505 218.200, 82.998 218.996 C 83.555 219.899, 83.303 220.789, 82.276 221.540 C 81.360 222.210, 81.108 222.949, 81.677 223.301 C 82.819 224.006, 90 218.373, 90 216.772 C 90 216.177, 89.177 216.435, 88.171 217.345 C 85.723 219.560, 84.654 219.433, 85.289 217.001 C 85.981 214.356, 84.367 213.445, 83.120 215.776 M 95.508 216.401 C 94.129 217.780, 93 219.394, 93 219.986 C 93 221.455, 95.622 222.352, 97.152 221.406 C 97.838 220.982, 99.426 220.590, 100.682 220.535 C 103.236 220.424, 105.743 218.410, 104.667 217.333 C 104.282 216.948, 103.434 217.166, 102.783 217.817 C 101.050 219.550, 100 219.264, 100 217.059 C 100 213.956, 98.215 213.695, 95.508 216.401 M 211.021 214.987 C 210.267 215.453, 207.930 215.677, 205.827 215.484 C 202.477 215.177, 201.929 215.434, 201.394 217.565 C 201.059 218.902, 201.077 220.759, 201.435 221.692 C 201.973 223.092, 202.424 222.831, 204.028 220.194 C 206.273 216.502, 208.695 215.983, 208.579 219.219 C 208.473 222.193, 211.434 222.684, 213.677 220.065 C 215.922 217.443, 218 217.412, 218 220 C 218 222.399, 219.538 222.647, 220.405 220.387 C 220.926 219.030, 221.276 218.984, 222.620 220.100 C 223.961 221.213, 224.407 221.163, 225.412 219.789 C 226.517 218.279, 226.691 218.282, 227.701 219.827 C 228.549 221.125, 229.196 221.260, 230.587 220.429 C 231.574 219.839, 232.576 218.714, 232.815 217.929 C 233.165 216.778, 232.992 216.743, 231.925 217.750 C 230.045 219.524, 229.315 219.313, 228.660 216.806 C 228.099 214.663, 228.039 214.655, 226.043 216.461 C 224.220 218.111, 224 218.132, 224 216.655 C 224 214.705, 222.877 214.523, 221.200 216.200 C 220.267 217.133, 220 217.118, 220 216.133 C 220 215.328, 219.283 215.093, 218.038 215.488 C 216.959 215.831, 215.247 215.667, 214.234 215.125 C 213.191 214.567, 211.797 214.507, 211.021 214.987 M 258.500 215 C 258.160 215.550, 256.994 216, 255.910 216 C 254.825 216, 253.650 216.747, 253.300 217.660 C 252.766 219.051, 252.523 218.942, 251.801 216.991 C 251.249 215.500, 250.593 215.007, 249.978 215.622 C 248.945 216.655, 250.843 223, 252.184 223 C 252.594 223, 253.456 221.988, 254.100 220.750 C 255.794 217.495, 255.773 217.498, 257.858 220.072 C 259.523 222.129, 260.087 222.281, 262.298 221.274 C 264.428 220.303, 264.936 220.389, 265.483 221.810 C 266.068 223.327, 266.242 223.296, 267.192 221.500 C 268.349 219.311, 270.916 217, 272.191 217 C 272.636 217, 273 217.825, 273 218.833 C 273 221.433, 273.974 222.084, 276.131 220.930 C 278.123 219.864, 278.516 220.638, 277.110 222.857 C 276.558 223.727, 275.398 223.978, 273.875 223.555 C 271.581 222.919, 271.566 222.950, 273.441 224.448 C 275.868 226.388, 276.472 226.386, 278.429 224.429 C 280.179 222.678, 280.710 213.443, 279 214.500 C 278.450 214.840, 278 215.711, 278 216.437 C 278 217.162, 277.250 218.373, 276.334 219.128 C 274.838 220.360, 274.734 220.237, 275.312 217.915 C 275.937 215.403, 275.822 215.332, 271.274 215.415 C 267.828 215.478, 265.998 216.094, 264.342 217.750 C 261.368 220.722, 259.514 220.671, 261.480 217.670 C 262.320 216.389, 262.705 215.039, 262.337 214.670 C 261.342 213.675, 259.205 213.859, 258.500 215 M 371.692 216.931 C 372.242 219.035, 374.508 218.724, 375.391 216.423 C 375.769 215.439, 375.205 215, 373.562 215 C 371.708 215, 371.298 215.423, 371.692 216.931 M 378.479 218.024 C 376.973 219.688, 376.932 220, 378.223 220 C 380.143 220, 382.429 217.383, 381.182 216.613 C 380.679 216.302, 379.462 216.937, 378.479 218.024 M 96.020 218.476 C 95.231 219.426, 95.155 220, 95.819 220 C 97.027 220, 98.436 218.103, 97.743 217.409 C 97.491 217.158, 96.716 217.638, 96.020 218.476 M 210.459 218.067 C 210.096 218.653, 210.040 219.373, 210.333 219.667 C 211.050 220.383, 213 219.121, 213 217.941 C 213 216.663, 211.274 216.748, 210.459 218.067 M 353.459 218.067 C 353.096 218.653, 353.040 219.373, 353.333 219.667 C 354.050 220.383, 356 219.121, 356 217.941 C 356 216.663, 354.274 216.748, 353.459 218.067" stroke="none" fill="#363331" fill-rule="evenodd"/></svg>